<mxfile host="app.diagrams.net" modified="2023-06-01T09:37:16.930Z" agent="Mozilla/5.0 (Windows NT 10.0; Win64; x64) AppleWebKit/537.36 (KHTML, like Gecko) Chrome/114.0.0.0 Safari/537.36" etag="rH5fSSEsxZxyHzBy1SqV" version="21.3.6" type="github">
  <diagram name="第 1 页" id="kdVOFN4OeXV8Te4mJ-ZW">
    <mxGraphModel dx="1195" dy="637" grid="1" gridSize="10" guides="1" tooltips="1" connect="1" arrows="1" fold="1" page="1" pageScale="1" pageWidth="4681" pageHeight="3300" math="0" shadow="0">
      <root>
        <mxCell id="0" />
        <mxCell id="1" parent="0" />
        <mxCell id="ye-Hzo8tlc1K3YxT7vBc-22" style="edgeStyle=orthogonalEdgeStyle;rounded=0;orthogonalLoop=1;jettySize=auto;html=1;exitX=0.5;exitY=1;exitDx=0;exitDy=0;" parent="1" source="ye-Hzo8tlc1K3YxT7vBc-1" target="ye-Hzo8tlc1K3YxT7vBc-4" edge="1">
          <mxGeometry relative="1" as="geometry" />
        </mxCell>
        <mxCell id="ye-Hzo8tlc1K3YxT7vBc-1" value="传入羁绊奖励Id" style="rounded=1;whiteSpace=wrap;html=1;" parent="1" vertex="1">
          <mxGeometry x="420" y="170" width="120" height="60" as="geometry" />
        </mxCell>
        <mxCell id="ye-Hzo8tlc1K3YxT7vBc-3" value="羁绊角色奖励领取" style="text;html=1;align=center;verticalAlign=middle;resizable=0;points=[];autosize=1;strokeColor=none;fillColor=none;" parent="1" vertex="1">
          <mxGeometry x="210" y="185" width="120" height="30" as="geometry" />
        </mxCell>
        <mxCell id="ye-Hzo8tlc1K3YxT7vBc-17" style="edgeStyle=orthogonalEdgeStyle;rounded=0;orthogonalLoop=1;jettySize=auto;html=1;exitX=0;exitY=0.5;exitDx=0;exitDy=0;entryX=1;entryY=0.5;entryDx=0;entryDy=0;" parent="1" source="ye-Hzo8tlc1K3YxT7vBc-4" target="ye-Hzo8tlc1K3YxT7vBc-9" edge="1">
          <mxGeometry relative="1" as="geometry" />
        </mxCell>
        <mxCell id="ye-Hzo8tlc1K3YxT7vBc-18" style="edgeStyle=orthogonalEdgeStyle;rounded=0;orthogonalLoop=1;jettySize=auto;html=1;exitX=0.5;exitY=1;exitDx=0;exitDy=0;entryX=0.5;entryY=0;entryDx=0;entryDy=0;" parent="1" source="ye-Hzo8tlc1K3YxT7vBc-4" target="ye-Hzo8tlc1K3YxT7vBc-23" edge="1">
          <mxGeometry relative="1" as="geometry">
            <mxPoint x="480" y="340" as="targetPoint" />
          </mxGeometry>
        </mxCell>
        <mxCell id="ye-Hzo8tlc1K3YxT7vBc-4" value="模板表是否存在" style="rhombus;whiteSpace=wrap;html=1;" parent="1" vertex="1">
          <mxGeometry x="410" y="260" width="140" height="50" as="geometry" />
        </mxCell>
        <mxCell id="ye-Hzo8tlc1K3YxT7vBc-16" style="edgeStyle=orthogonalEdgeStyle;rounded=0;orthogonalLoop=1;jettySize=auto;html=1;exitX=0;exitY=0.5;exitDx=0;exitDy=0;" parent="1" source="ye-Hzo8tlc1K3YxT7vBc-6" target="ye-Hzo8tlc1K3YxT7vBc-13" edge="1">
          <mxGeometry relative="1" as="geometry" />
        </mxCell>
        <mxCell id="ye-Hzo8tlc1K3YxT7vBc-19" style="edgeStyle=orthogonalEdgeStyle;rounded=0;orthogonalLoop=1;jettySize=auto;html=1;exitX=0.5;exitY=1;exitDx=0;exitDy=0;" parent="1" source="ye-Hzo8tlc1K3YxT7vBc-6" target="ye-Hzo8tlc1K3YxT7vBc-7" edge="1">
          <mxGeometry relative="1" as="geometry" />
        </mxCell>
        <mxCell id="ye-Hzo8tlc1K3YxT7vBc-6" value="是否已拥有该角色" style="rhombus;whiteSpace=wrap;html=1;" parent="1" vertex="1">
          <mxGeometry x="410" y="440" width="140" height="50" as="geometry" />
        </mxCell>
        <mxCell id="ye-Hzo8tlc1K3YxT7vBc-15" style="edgeStyle=orthogonalEdgeStyle;rounded=0;orthogonalLoop=1;jettySize=auto;html=1;exitX=0;exitY=0.5;exitDx=0;exitDy=0;entryX=1;entryY=0.5;entryDx=0;entryDy=0;" parent="1" source="ye-Hzo8tlc1K3YxT7vBc-7" target="ye-Hzo8tlc1K3YxT7vBc-14" edge="1">
          <mxGeometry relative="1" as="geometry" />
        </mxCell>
        <mxCell id="ye-Hzo8tlc1K3YxT7vBc-20" style="edgeStyle=orthogonalEdgeStyle;rounded=0;orthogonalLoop=1;jettySize=auto;html=1;exitX=0.5;exitY=1;exitDx=0;exitDy=0;" parent="1" source="ye-Hzo8tlc1K3YxT7vBc-7" target="ye-Hzo8tlc1K3YxT7vBc-11" edge="1">
          <mxGeometry relative="1" as="geometry" />
        </mxCell>
        <mxCell id="ye-Hzo8tlc1K3YxT7vBc-7" value="是否存在所有羁绊角色" style="rhombus;whiteSpace=wrap;html=1;" parent="1" vertex="1">
          <mxGeometry x="410" y="530" width="140" height="50" as="geometry" />
        </mxCell>
        <mxCell id="ye-Hzo8tlc1K3YxT7vBc-9" value="参数错误" style="whiteSpace=wrap;html=1;" parent="1" vertex="1">
          <mxGeometry x="200" y="265" width="110" height="40" as="geometry" />
        </mxCell>
        <mxCell id="ye-Hzo8tlc1K3YxT7vBc-21" style="edgeStyle=orthogonalEdgeStyle;rounded=0;orthogonalLoop=1;jettySize=auto;html=1;exitX=0.5;exitY=1;exitDx=0;exitDy=0;entryX=0.5;entryY=0;entryDx=0;entryDy=0;" parent="1" source="ye-Hzo8tlc1K3YxT7vBc-11" target="ye-Hzo8tlc1K3YxT7vBc-12" edge="1">
          <mxGeometry relative="1" as="geometry" />
        </mxCell>
        <mxCell id="ye-Hzo8tlc1K3YxT7vBc-11" value="发奖" style="rounded=0;whiteSpace=wrap;html=1;" parent="1" vertex="1">
          <mxGeometry x="420" y="630" width="120" height="40" as="geometry" />
        </mxCell>
        <mxCell id="ye-Hzo8tlc1K3YxT7vBc-12" value="埋点" style="rounded=0;whiteSpace=wrap;html=1;" parent="1" vertex="1">
          <mxGeometry x="420" y="700" width="120" height="40" as="geometry" />
        </mxCell>
        <mxCell id="ye-Hzo8tlc1K3YxT7vBc-13" value="角色不存在" style="whiteSpace=wrap;html=1;" parent="1" vertex="1">
          <mxGeometry x="200" y="445" width="110" height="40" as="geometry" />
        </mxCell>
        <mxCell id="ye-Hzo8tlc1K3YxT7vBc-14" value="角色不存在" style="whiteSpace=wrap;html=1;" parent="1" vertex="1">
          <mxGeometry x="200" y="535" width="110" height="40" as="geometry" />
        </mxCell>
        <mxCell id="ye-Hzo8tlc1K3YxT7vBc-24" style="edgeStyle=orthogonalEdgeStyle;rounded=0;orthogonalLoop=1;jettySize=auto;html=1;exitX=0.5;exitY=1;exitDx=0;exitDy=0;entryX=0.5;entryY=0;entryDx=0;entryDy=0;" parent="1" source="ye-Hzo8tlc1K3YxT7vBc-23" target="ye-Hzo8tlc1K3YxT7vBc-6" edge="1">
          <mxGeometry relative="1" as="geometry" />
        </mxCell>
        <mxCell id="ye-Hzo8tlc1K3YxT7vBc-23" value="是否已领取过羁绊" style="rhombus;whiteSpace=wrap;html=1;" parent="1" vertex="1">
          <mxGeometry x="410" y="360" width="140" height="50" as="geometry" />
        </mxCell>
        <mxCell id="ye-Hzo8tlc1K3YxT7vBc-25" value="参数错误" style="whiteSpace=wrap;html=1;" parent="1" vertex="1">
          <mxGeometry x="200" y="360" width="110" height="40" as="geometry" />
        </mxCell>
        <mxCell id="3l4a-vmYQsrZcGw0gVcB-1" value="Logic" style="rounded=0;whiteSpace=wrap;html=1;" vertex="1" parent="1">
          <mxGeometry x="1030" y="125" width="110" height="35" as="geometry" />
        </mxCell>
        <mxCell id="3l4a-vmYQsrZcGw0gVcB-2" value="Client" style="shape=umlActor;verticalLabelPosition=bottom;verticalAlign=top;html=1;outlineConnect=0;" vertex="1" parent="1">
          <mxGeometry x="840" y="200" width="30" height="60" as="geometry" />
        </mxCell>
        <mxCell id="3l4a-vmYQsrZcGw0gVcB-3" value="" style="endArrow=none;html=1;rounded=0;entryX=0.5;entryY=1;entryDx=0;entryDy=0;" edge="1" parent="1" source="3l4a-vmYQsrZcGw0gVcB-6" target="3l4a-vmYQsrZcGw0gVcB-1">
          <mxGeometry width="50" height="50" relative="1" as="geometry">
            <mxPoint x="1085" y="771" as="sourcePoint" />
            <mxPoint x="1150" y="340" as="targetPoint" />
          </mxGeometry>
        </mxCell>
        <mxCell id="3l4a-vmYQsrZcGw0gVcB-4" value="" style="endArrow=classic;html=1;rounded=0;" edge="1" parent="1">
          <mxGeometry width="50" height="50" relative="1" as="geometry">
            <mxPoint x="910" y="230" as="sourcePoint" />
            <mxPoint x="1070" y="230" as="targetPoint" />
          </mxGeometry>
        </mxCell>
        <mxCell id="3l4a-vmYQsrZcGw0gVcB-5" value="登录" style="text;html=1;align=center;verticalAlign=middle;resizable=0;points=[];autosize=1;strokeColor=none;fillColor=none;" vertex="1" parent="1">
          <mxGeometry x="955" y="198" width="50" height="30" as="geometry" />
        </mxCell>
        <mxCell id="3l4a-vmYQsrZcGw0gVcB-7" value="" style="endArrow=none;html=1;rounded=0;entryX=0.5;entryY=1;entryDx=0;entryDy=0;" edge="1" parent="1" target="3l4a-vmYQsrZcGw0gVcB-6">
          <mxGeometry width="50" height="50" relative="1" as="geometry">
            <mxPoint x="1085" y="771" as="sourcePoint" />
            <mxPoint x="1085" y="160" as="targetPoint" />
          </mxGeometry>
        </mxCell>
        <mxCell id="3l4a-vmYQsrZcGw0gVcB-6" value="" style="rounded=0;whiteSpace=wrap;html=1;" vertex="1" parent="1">
          <mxGeometry x="1070" y="215" width="30" height="52" as="geometry" />
        </mxCell>
        <mxCell id="3l4a-vmYQsrZcGw0gVcB-8" value="异步处理：&lt;br&gt;根据玩家现有角色，解锁角色资料任务&lt;br&gt;触发登录任务检查" style="text;html=1;align=left;verticalAlign=middle;resizable=0;points=[];autosize=1;strokeColor=none;fillColor=none;" vertex="1" parent="1">
          <mxGeometry x="1120" y="211" width="230" height="60" as="geometry" />
        </mxCell>
        <mxCell id="3l4a-vmYQsrZcGw0gVcB-9" value="" style="endArrow=classic;html=1;rounded=0;" edge="1" parent="1">
          <mxGeometry width="50" height="50" relative="1" as="geometry">
            <mxPoint x="900" y="370" as="sourcePoint" />
            <mxPoint x="1060" y="370" as="targetPoint" />
          </mxGeometry>
        </mxCell>
        <mxCell id="3l4a-vmYQsrZcGw0gVcB-10" value="进大厅&lt;br&gt;clientExpectedPushProtocol" style="text;html=1;align=center;verticalAlign=middle;resizable=0;points=[];autosize=1;strokeColor=none;fillColor=none;" vertex="1" parent="1">
          <mxGeometry x="900" y="320" width="170" height="40" as="geometry" />
        </mxCell>
        <mxCell id="3l4a-vmYQsrZcGw0gVcB-11" value="" style="rounded=0;whiteSpace=wrap;html=1;" vertex="1" parent="1">
          <mxGeometry x="1070" y="355" width="32.5" height="60" as="geometry" />
        </mxCell>
        <mxCell id="3l4a-vmYQsrZcGw0gVcB-12" value="触发角色蓝点检测" style="text;html=1;align=center;verticalAlign=middle;resizable=0;points=[];autosize=1;strokeColor=none;fillColor=none;" vertex="1" parent="1">
          <mxGeometry x="1120" y="370" width="120" height="30" as="geometry" />
        </mxCell>
        <mxCell id="3l4a-vmYQsrZcGw0gVcB-13" value="登录逻辑" style="whiteSpace=wrap;html=1;" vertex="1" parent="1">
          <mxGeometry x="1632.5" y="160" width="120" height="40" as="geometry" />
        </mxCell>
        <mxCell id="3l4a-vmYQsrZcGw0gVcB-20" style="edgeStyle=orthogonalEdgeStyle;rounded=0;orthogonalLoop=1;jettySize=auto;html=1;exitX=0.5;exitY=1;exitDx=0;exitDy=0;entryX=0.5;entryY=0;entryDx=0;entryDy=0;" edge="1" parent="1" source="3l4a-vmYQsrZcGw0gVcB-14">
          <mxGeometry relative="1" as="geometry">
            <mxPoint x="1692.5" y="300" as="targetPoint" />
          </mxGeometry>
        </mxCell>
        <mxCell id="3l4a-vmYQsrZcGw0gVcB-14" value="获取配置了角色资料的角色ID" style="whiteSpace=wrap;html=1;" vertex="1" parent="1">
          <mxGeometry x="1605" y="230" width="175" height="40" as="geometry" />
        </mxCell>
        <mxCell id="3l4a-vmYQsrZcGw0gVcB-21" style="edgeStyle=orthogonalEdgeStyle;rounded=0;orthogonalLoop=1;jettySize=auto;html=1;exitX=0.5;exitY=1;exitDx=0;exitDy=0;entryX=0.5;entryY=0;entryDx=0;entryDy=0;" edge="1" parent="1" target="3l4a-vmYQsrZcGw0gVcB-18">
          <mxGeometry relative="1" as="geometry">
            <mxPoint x="1692.5" y="340" as="sourcePoint" />
          </mxGeometry>
        </mxCell>
        <mxCell id="3l4a-vmYQsrZcGw0gVcB-22" style="edgeStyle=orthogonalEdgeStyle;rounded=0;orthogonalLoop=1;jettySize=auto;html=1;" edge="1" parent="1" source="3l4a-vmYQsrZcGw0gVcB-18" target="3l4a-vmYQsrZcGw0gVcB-19">
          <mxGeometry relative="1" as="geometry" />
        </mxCell>
        <mxCell id="3l4a-vmYQsrZcGw0gVcB-46" style="edgeStyle=orthogonalEdgeStyle;rounded=0;orthogonalLoop=1;jettySize=auto;html=1;exitX=0;exitY=0.5;exitDx=0;exitDy=0;entryX=0;entryY=0.5;entryDx=0;entryDy=0;" edge="1" parent="1" source="3l4a-vmYQsrZcGw0gVcB-18">
          <mxGeometry relative="1" as="geometry">
            <mxPoint x="1605" y="320" as="targetPoint" />
            <Array as="points">
              <mxPoint x="1570" y="400" />
              <mxPoint x="1570" y="320" />
            </Array>
          </mxGeometry>
        </mxCell>
        <mxCell id="3l4a-vmYQsrZcGw0gVcB-18" value="是否有角色资料&lt;br&gt;进度entity" style="rhombus;whiteSpace=wrap;html=1;" vertex="1" parent="1">
          <mxGeometry x="1620" y="370" width="140" height="60" as="geometry" />
        </mxCell>
        <mxCell id="3l4a-vmYQsrZcGw0gVcB-50" style="edgeStyle=orthogonalEdgeStyle;rounded=0;orthogonalLoop=1;jettySize=auto;html=1;exitX=0.5;exitY=1;exitDx=0;exitDy=0;entryX=0;entryY=0.5;entryDx=0;entryDy=0;" edge="1" parent="1" source="3l4a-vmYQsrZcGw0gVcB-19" target="3l4a-vmYQsrZcGw0gVcB-49">
          <mxGeometry relative="1" as="geometry">
            <Array as="points">
              <mxPoint x="1690" y="520" />
              <mxPoint x="1570" y="520" />
              <mxPoint x="1570" y="320" />
              <mxPoint x="1599" y="320" />
            </Array>
          </mxGeometry>
        </mxCell>
        <mxCell id="3l4a-vmYQsrZcGw0gVcB-19" value="创建资料进度Entity" style="whiteSpace=wrap;html=1;" vertex="1" parent="1">
          <mxGeometry x="1630" y="460" width="120" height="40" as="geometry" />
        </mxCell>
        <mxCell id="3l4a-vmYQsrZcGw0gVcB-27" style="edgeStyle=orthogonalEdgeStyle;rounded=0;orthogonalLoop=1;jettySize=auto;html=1;exitX=0.5;exitY=1;exitDx=0;exitDy=0;" edge="1" parent="1" source="3l4a-vmYQsrZcGw0gVcB-23" target="3l4a-vmYQsrZcGw0gVcB-24">
          <mxGeometry relative="1" as="geometry" />
        </mxCell>
        <mxCell id="3l4a-vmYQsrZcGw0gVcB-23" value="登录时 check" style="whiteSpace=wrap;html=1;" vertex="1" parent="1">
          <mxGeometry x="1940" y="230" width="140" height="40" as="geometry" />
        </mxCell>
        <mxCell id="3l4a-vmYQsrZcGw0gVcB-29" style="edgeStyle=orthogonalEdgeStyle;rounded=0;orthogonalLoop=1;jettySize=auto;html=1;exitX=0.5;exitY=1;exitDx=0;exitDy=0;" edge="1" parent="1" source="3l4a-vmYQsrZcGw0gVcB-24" target="3l4a-vmYQsrZcGw0gVcB-28">
          <mxGeometry relative="1" as="geometry" />
        </mxCell>
        <mxCell id="3l4a-vmYQsrZcGw0gVcB-24" value="有完成的资料，标记蓝点" style="whiteSpace=wrap;html=1;" vertex="1" parent="1">
          <mxGeometry x="1940" y="300" width="140" height="40" as="geometry" />
        </mxCell>
        <mxCell id="3l4a-vmYQsrZcGw0gVcB-28" value="推送到蓝点系统" style="whiteSpace=wrap;html=1;" vertex="1" parent="1">
          <mxGeometry x="1940" y="365" width="140" height="40" as="geometry" />
        </mxCell>
        <mxCell id="3l4a-vmYQsrZcGw0gVcB-35" style="edgeStyle=orthogonalEdgeStyle;rounded=0;orthogonalLoop=1;jettySize=auto;html=1;exitX=0.5;exitY=1;exitDx=0;exitDy=0;entryX=0.5;entryY=0;entryDx=0;entryDy=0;" edge="1" parent="1" source="3l4a-vmYQsrZcGw0gVcB-30">
          <mxGeometry relative="1" as="geometry">
            <mxPoint x="1692.5" y="670" as="targetPoint" />
          </mxGeometry>
        </mxCell>
        <mxCell id="3l4a-vmYQsrZcGw0gVcB-30" value="进大厅时" style="whiteSpace=wrap;html=1;" vertex="1" parent="1">
          <mxGeometry x="1620" y="600" width="150" height="40" as="geometry" />
        </mxCell>
        <mxCell id="3l4a-vmYQsrZcGw0gVcB-32" value="通知蓝点系统通知客户端" style="whiteSpace=wrap;html=1;" vertex="1" parent="1">
          <mxGeometry x="1622.5" y="770" width="140" height="40" as="geometry" />
        </mxCell>
        <mxCell id="3l4a-vmYQsrZcGw0gVcB-34" style="edgeStyle=orthogonalEdgeStyle;rounded=0;orthogonalLoop=1;jettySize=auto;html=1;exitX=0.5;exitY=1;exitDx=0;exitDy=0;" edge="1" parent="1" target="3l4a-vmYQsrZcGw0gVcB-32">
          <mxGeometry relative="1" as="geometry">
            <mxPoint x="1692.5" y="730" as="sourcePoint" />
          </mxGeometry>
        </mxCell>
        <mxCell id="3l4a-vmYQsrZcGw0gVcB-41" style="edgeStyle=orthogonalEdgeStyle;rounded=0;orthogonalLoop=1;jettySize=auto;html=1;exitX=0.5;exitY=1;exitDx=0;exitDy=0;" edge="1" parent="1" source="3l4a-vmYQsrZcGw0gVcB-36" target="3l4a-vmYQsrZcGw0gVcB-38">
          <mxGeometry relative="1" as="geometry" />
        </mxCell>
        <mxCell id="3l4a-vmYQsrZcGw0gVcB-36" value="消除蓝点" style="whiteSpace=wrap;html=1;" vertex="1" parent="1">
          <mxGeometry x="2000" y="610" width="150" height="40" as="geometry" />
        </mxCell>
        <mxCell id="3l4a-vmYQsrZcGw0gVcB-42" style="edgeStyle=orthogonalEdgeStyle;rounded=0;orthogonalLoop=1;jettySize=auto;html=1;exitX=0.5;exitY=1;exitDx=0;exitDy=0;entryX=0.5;entryY=0;entryDx=0;entryDy=0;" edge="1" parent="1" source="3l4a-vmYQsrZcGw0gVcB-38" target="3l4a-vmYQsrZcGw0gVcB-39">
          <mxGeometry relative="1" as="geometry" />
        </mxCell>
        <mxCell id="3l4a-vmYQsrZcGw0gVcB-38" value="根据枚举参数找到系统服务" style="whiteSpace=wrap;html=1;" vertex="1" parent="1">
          <mxGeometry x="2000" y="680" width="150" height="40" as="geometry" />
        </mxCell>
        <mxCell id="3l4a-vmYQsrZcGw0gVcB-43" style="edgeStyle=orthogonalEdgeStyle;rounded=0;orthogonalLoop=1;jettySize=auto;html=1;" edge="1" parent="1" source="3l4a-vmYQsrZcGw0gVcB-39" target="3l4a-vmYQsrZcGw0gVcB-40">
          <mxGeometry relative="1" as="geometry" />
        </mxCell>
        <mxCell id="3l4a-vmYQsrZcGw0gVcB-39" value="角色资料系统将对应资料取消蓝点" style="rounded=0;whiteSpace=wrap;html=1;" vertex="1" parent="1">
          <mxGeometry x="2000" y="750" width="150" height="40" as="geometry" />
        </mxCell>
        <mxCell id="3l4a-vmYQsrZcGw0gVcB-93" style="edgeStyle=orthogonalEdgeStyle;rounded=0;orthogonalLoop=1;jettySize=auto;html=1;exitX=0.5;exitY=1;exitDx=0;exitDy=0;entryX=0.5;entryY=0;entryDx=0;entryDy=0;" edge="1" parent="1" source="3l4a-vmYQsrZcGw0gVcB-40" target="3l4a-vmYQsrZcGw0gVcB-56">
          <mxGeometry relative="1" as="geometry" />
        </mxCell>
        <mxCell id="3l4a-vmYQsrZcGw0gVcB-40" value="发送取消蓝点事件" style="rounded=0;whiteSpace=wrap;html=1;fillColor=#ffe6cc;strokeColor=#d79b00;" vertex="1" parent="1">
          <mxGeometry x="2000" y="820" width="150" height="40" as="geometry" />
        </mxCell>
        <mxCell id="3l4a-vmYQsrZcGw0gVcB-44" value="此处有可能没进大厅，推送进度，大厅无法收到" style="text;html=1;align=center;verticalAlign=middle;resizable=0;points=[];autosize=1;strokeColor=none;fillColor=none;" vertex="1" parent="1">
          <mxGeometry x="1880" y="430" width="280" height="30" as="geometry" />
        </mxCell>
        <mxCell id="3l4a-vmYQsrZcGw0gVcB-47" value="是" style="text;html=1;align=center;verticalAlign=middle;resizable=0;points=[];autosize=1;strokeColor=none;fillColor=none;" vertex="1" parent="1">
          <mxGeometry x="1570" y="375" width="40" height="30" as="geometry" />
        </mxCell>
        <mxCell id="3l4a-vmYQsrZcGw0gVcB-48" value="否" style="text;html=1;align=center;verticalAlign=middle;resizable=0;points=[];autosize=1;strokeColor=none;fillColor=none;" vertex="1" parent="1">
          <mxGeometry x="1690" y="430" width="40" height="30" as="geometry" />
        </mxCell>
        <mxCell id="3l4a-vmYQsrZcGw0gVcB-52" style="edgeStyle=orthogonalEdgeStyle;rounded=0;orthogonalLoop=1;jettySize=auto;html=1;exitX=1;exitY=0.5;exitDx=0;exitDy=0;entryX=0;entryY=0.5;entryDx=0;entryDy=0;" edge="1" parent="1" source="3l4a-vmYQsrZcGw0gVcB-49" target="3l4a-vmYQsrZcGw0gVcB-23">
          <mxGeometry relative="1" as="geometry" />
        </mxCell>
        <mxCell id="3l4a-vmYQsrZcGw0gVcB-49" value="筛选玩家拥有的角色的角色资料" style="shape=parallelogram;perimeter=parallelogramPerimeter;whiteSpace=wrap;html=1;fixedSize=1;" vertex="1" parent="1">
          <mxGeometry x="1589" y="300" width="202" height="40" as="geometry" />
        </mxCell>
        <mxCell id="3l4a-vmYQsrZcGw0gVcB-51" value="继续循环" style="text;html=1;align=center;verticalAlign=middle;resizable=0;points=[];autosize=1;strokeColor=none;fillColor=none;" vertex="1" parent="1">
          <mxGeometry x="1565" y="498" width="70" height="30" as="geometry" />
        </mxCell>
        <mxCell id="3l4a-vmYQsrZcGw0gVcB-53" value="循环结束" style="text;html=1;align=center;verticalAlign=middle;resizable=0;points=[];autosize=1;strokeColor=none;fillColor=none;" vertex="1" parent="1">
          <mxGeometry x="1791" y="290" width="70" height="30" as="geometry" />
        </mxCell>
        <mxCell id="3l4a-vmYQsrZcGw0gVcB-54" value="&lt;div&gt;蓝点系统判定&lt;/div&gt;&lt;div&gt;是否有未读&lt;/div&gt;" style="rounded=0;whiteSpace=wrap;html=1;" vertex="1" parent="1">
          <mxGeometry x="1617.5" y="670" width="150" height="50" as="geometry" />
        </mxCell>
        <mxCell id="3l4a-vmYQsrZcGw0gVcB-55" value="例如是资料系统" style="text;html=1;align=center;verticalAlign=middle;resizable=0;points=[];autosize=1;strokeColor=none;fillColor=none;" vertex="1" parent="1">
          <mxGeometry x="2070" y="720" width="110" height="30" as="geometry" />
        </mxCell>
        <mxCell id="3l4a-vmYQsrZcGw0gVcB-56" value="蓝点缓存取消" style="rounded=0;whiteSpace=wrap;html=1;" vertex="1" parent="1">
          <mxGeometry x="2000" y="880" width="150" height="40" as="geometry" />
        </mxCell>
        <mxCell id="3l4a-vmYQsrZcGw0gVcB-88" style="edgeStyle=orthogonalEdgeStyle;rounded=0;orthogonalLoop=1;jettySize=auto;html=1;exitX=0.5;exitY=1;exitDx=0;exitDy=0;entryX=0.5;entryY=0;entryDx=0;entryDy=0;" edge="1" parent="1" source="3l4a-vmYQsrZcGw0gVcB-66" target="3l4a-vmYQsrZcGw0gVcB-67">
          <mxGeometry relative="1" as="geometry" />
        </mxCell>
        <mxCell id="3l4a-vmYQsrZcGw0gVcB-66" value="角色资料-判定解锁资料" style="whiteSpace=wrap;html=1;" vertex="1" parent="1">
          <mxGeometry x="2230" y="615" width="150" height="40" as="geometry" />
        </mxCell>
        <mxCell id="3l4a-vmYQsrZcGw0gVcB-89" style="edgeStyle=orthogonalEdgeStyle;rounded=0;orthogonalLoop=1;jettySize=auto;html=1;exitX=0.5;exitY=1;exitDx=0;exitDy=0;" edge="1" parent="1" source="3l4a-vmYQsrZcGw0gVcB-67" target="3l4a-vmYQsrZcGw0gVcB-68">
          <mxGeometry relative="1" as="geometry" />
        </mxCell>
        <mxCell id="3l4a-vmYQsrZcGw0gVcB-67" value="角色资料标记为蓝点状态" style="whiteSpace=wrap;html=1;" vertex="1" parent="1">
          <mxGeometry x="2230" y="680" width="150" height="40" as="geometry" />
        </mxCell>
        <mxCell id="3l4a-vmYQsrZcGw0gVcB-90" style="edgeStyle=orthogonalEdgeStyle;rounded=0;orthogonalLoop=1;jettySize=auto;html=1;exitX=0.5;exitY=1;exitDx=0;exitDy=0;" edge="1" parent="1" source="3l4a-vmYQsrZcGw0gVcB-68" target="3l4a-vmYQsrZcGw0gVcB-69">
          <mxGeometry relative="1" as="geometry" />
        </mxCell>
        <mxCell id="3l4a-vmYQsrZcGw0gVcB-68" value="发送增加蓝点事件" style="whiteSpace=wrap;html=1;fillColor=#ffe6cc;strokeColor=#d79b00;" vertex="1" parent="1">
          <mxGeometry x="2230" y="745" width="150" height="40" as="geometry" />
        </mxCell>
        <mxCell id="3l4a-vmYQsrZcGw0gVcB-91" style="edgeStyle=orthogonalEdgeStyle;rounded=0;orthogonalLoop=1;jettySize=auto;html=1;exitX=0.5;exitY=1;exitDx=0;exitDy=0;" edge="1" parent="1" source="3l4a-vmYQsrZcGw0gVcB-69" target="3l4a-vmYQsrZcGw0gVcB-86">
          <mxGeometry relative="1" as="geometry" />
        </mxCell>
        <mxCell id="3l4a-vmYQsrZcGw0gVcB-69" value="蓝点缓存标记对应蓝点" style="rounded=0;whiteSpace=wrap;html=1;" vertex="1" parent="1">
          <mxGeometry x="2230" y="805" width="150" height="40" as="geometry" />
        </mxCell>
        <mxCell id="3l4a-vmYQsrZcGw0gVcB-70" style="edgeStyle=orthogonalEdgeStyle;rounded=0;orthogonalLoop=1;jettySize=auto;html=1;exitX=0.5;exitY=1;exitDx=0;exitDy=0;" edge="1" parent="1" source="3l4a-vmYQsrZcGw0gVcB-71" target="3l4a-vmYQsrZcGw0gVcB-73">
          <mxGeometry relative="1" as="geometry" />
        </mxCell>
        <mxCell id="3l4a-vmYQsrZcGw0gVcB-71" value="获取蓝点" style="whiteSpace=wrap;html=1;" vertex="1" parent="1">
          <mxGeometry x="2460" y="615" width="150" height="40" as="geometry" />
        </mxCell>
        <mxCell id="3l4a-vmYQsrZcGw0gVcB-87" style="edgeStyle=orthogonalEdgeStyle;rounded=0;orthogonalLoop=1;jettySize=auto;html=1;exitX=0.5;exitY=1;exitDx=0;exitDy=0;entryX=0.5;entryY=0;entryDx=0;entryDy=0;" edge="1" parent="1" source="3l4a-vmYQsrZcGw0gVcB-73" target="3l4a-vmYQsrZcGw0gVcB-85">
          <mxGeometry relative="1" as="geometry" />
        </mxCell>
        <mxCell id="3l4a-vmYQsrZcGw0gVcB-73" value="蓝点缓存查找对应系统的位图" style="whiteSpace=wrap;html=1;" vertex="1" parent="1">
          <mxGeometry x="2460" y="685" width="150" height="40" as="geometry" />
        </mxCell>
        <mxCell id="3l4a-vmYQsrZcGw0gVcB-83" value="新增蓝点" style="text;html=1;align=center;verticalAlign=middle;resizable=0;points=[];autosize=1;strokeColor=none;fillColor=none;" vertex="1" parent="1">
          <mxGeometry x="2270" y="575" width="70" height="30" as="geometry" />
        </mxCell>
        <mxCell id="3l4a-vmYQsrZcGw0gVcB-84" value="蓝点缓存获取业务系统蓝点" style="text;html=1;align=center;verticalAlign=middle;resizable=0;points=[];autosize=1;strokeColor=none;fillColor=none;" vertex="1" parent="1">
          <mxGeometry x="2458" y="575" width="170" height="30" as="geometry" />
        </mxCell>
        <mxCell id="3l4a-vmYQsrZcGw0gVcB-85" value="返回是否有蓝点&lt;br&gt;&lt;font color=&quot;#ff3333&quot;&gt;不支持返回具体蓝点哪一个&lt;/font&gt;" style="whiteSpace=wrap;html=1;" vertex="1" parent="1">
          <mxGeometry x="2460" y="745" width="150" height="40" as="geometry" />
        </mxCell>
        <mxCell id="3l4a-vmYQsrZcGw0gVcB-86" value="由蓝点缓存统一通知客户端" style="rounded=0;whiteSpace=wrap;html=1;" vertex="1" parent="1">
          <mxGeometry x="2230" y="875" width="150" height="40" as="geometry" />
        </mxCell>
        <mxCell id="3l4a-vmYQsrZcGw0gVcB-92" value="消除蓝点" style="text;html=1;align=center;verticalAlign=middle;resizable=0;points=[];autosize=1;strokeColor=none;fillColor=none;" vertex="1" parent="1">
          <mxGeometry x="2040" y="575" width="70" height="30" as="geometry" />
        </mxCell>
        <mxCell id="3l4a-vmYQsrZcGw0gVcB-94" value="蓝点系统流程" style="text;html=1;align=center;verticalAlign=middle;resizable=0;points=[];autosize=1;strokeColor=none;fillColor=none;" vertex="1" parent="1">
          <mxGeometry x="2255" y="498" width="100" height="30" as="geometry" />
        </mxCell>
      </root>
    </mxGraphModel>
  </diagram>
</mxfile>
